<?xml version="1.0" encoding="iso-8859-1"?>
<!-- Generator: Adobe Illustrator 19.0.0, SVG Export Plug-In . SVG Version: 6.00 Build 0)  -->
<svg version="1.1" id="Capa_1" xmlns="http://www.w3.org/2000/svg" xmlns:xlink="http://www.w3.org/1999/xlink" x="0px" y="0px"
	 viewBox="0 0 512 512" style="enable-background:new 0 0 512 512;" xml:space="preserve">
<path style="fill:#E3E3E3;" d="M13.815,349.101c0,12.71,10.304,23.014,23.014,23.014h438.34c12.71,0,23.014-10.304,23.014-23.014
	V84.442H13.815V349.101z"/>
<rect x="53.814" y="124.44" style="fill:#54E3E3;" width="404.37" height="207.67"/>
<path style="fill:#5E6E82;" d="M498.183,84.442V33.014c0-12.71-10.304-23.014-23.014-23.014H36.828
	c-12.71,0-23.014,10.304-23.014,23.014v51.428H498.183z"/>
<path d="M448.068,57.22c-0.659,0-1.31-0.06-1.96-0.19c-0.64-0.13-1.27-0.33-1.869-0.58c-0.601-0.25-1.181-0.55-1.721-0.92
	c-0.55-0.36-1.06-0.78-1.52-1.24c-0.47-0.46-0.891-0.97-1.25-1.52c-0.36-0.54-0.67-1.12-0.92-1.72c-0.25-0.61-0.44-1.24-0.57-1.87
	c-0.13-0.65-0.2-1.31-0.2-1.96s0.07-1.31,0.2-1.95s0.32-1.27,0.57-1.87c0.25-0.61,0.56-1.19,0.92-1.73
	c0.359-0.55,0.78-1.06,1.25-1.52c0.46-0.46,0.97-0.88,1.52-1.24c0.54-0.36,1.12-0.67,1.721-0.92c0.6-0.25,1.229-0.45,1.869-0.57
	c1.29-0.26,2.62-0.26,3.91,0c0.641,0.12,1.271,0.32,1.87,0.57c0.601,0.25,1.18,0.56,1.73,0.92c0.54,0.36,1.05,0.78,1.52,1.24
	c0.46,0.46,0.88,0.97,1.24,1.52c0.36,0.54,0.67,1.12,0.92,1.73c0.25,0.6,0.44,1.23,0.57,1.87s0.199,1.3,0.199,1.95
	s-0.069,1.31-0.199,1.96c-0.13,0.63-0.32,1.26-0.57,1.87c-0.25,0.6-0.56,1.18-0.92,1.72c-0.36,0.55-0.78,1.06-1.24,1.52
	c-0.47,0.46-0.979,0.88-1.52,1.24c-0.551,0.37-1.13,0.67-1.73,0.92s-1.229,0.45-1.87,0.58
	C449.379,57.16,448.718,57.22,448.068,57.22z"/>
<path d="M410.763,57.221H217.524c-5.523,0-10-4.477-10-10s4.477-10,10-10h193.239c5.522,0,10,4.477,10,10
	S416.286,57.221,410.763,57.221z"/>
<path d="M100.269,57.22c-0.65,0-1.31-0.06-1.96-0.19c-0.63-0.13-1.26-0.32-1.87-0.57c-0.6-0.25-1.18-0.56-1.72-0.92
	c-0.55-0.37-1.06-0.79-1.52-1.25s-0.88-0.97-1.25-1.52c-0.36-0.54-0.67-1.12-0.92-1.72c-0.25-0.61-0.44-1.24-0.57-1.88
	s-0.19-1.3-0.19-1.95s0.06-1.31,0.19-1.95c0.13-0.64,0.32-1.27,0.57-1.87c0.25-0.61,0.56-1.19,0.92-1.73
	c0.37-0.55,0.79-1.06,1.25-1.52s0.97-0.88,1.52-1.24c0.54-0.36,1.12-0.67,1.72-0.92c0.61-0.25,1.24-0.44,1.87-0.57
	c1.29-0.26,2.62-0.26,3.91,0c0.64,0.13,1.27,0.32,1.87,0.57c0.61,0.25,1.19,0.56,1.73,0.92c0.55,0.36,1.06,0.78,1.52,1.24
	s0.88,0.97,1.24,1.52c0.36,0.54,0.67,1.12,0.92,1.73c0.25,0.6,0.44,1.23,0.57,1.87s0.2,1.3,0.2,1.95s-0.07,1.31-0.2,1.95
	s-0.32,1.27-0.57,1.88c-0.25,0.6-0.56,1.18-0.92,1.72c-0.36,0.55-0.78,1.06-1.24,1.52s-0.97,0.88-1.52,1.25
	c-0.54,0.36-1.12,0.67-1.73,0.92c-0.6,0.25-1.23,0.44-1.87,0.57S100.919,57.22,100.269,57.22z"/>
<path d="M136.598,57.22c-0.65,0-1.31-0.07-1.95-0.2c-0.64-0.12-1.27-0.32-1.87-0.57c-0.61-0.25-1.19-0.56-1.73-0.92
	c-0.55-0.36-1.06-0.78-1.52-1.24c-0.46-0.46-0.88-0.97-1.24-1.52c-0.36-0.54-0.67-1.12-0.92-1.73c-0.25-0.6-0.45-1.23-0.57-1.87
	c-0.13-0.64-0.2-1.3-0.2-1.95s0.07-1.31,0.2-1.95c0.12-0.64,0.32-1.27,0.57-1.87c0.25-0.61,0.56-1.19,0.92-1.73
	c0.36-0.55,0.78-1.06,1.24-1.52s0.97-0.88,1.52-1.24c0.54-0.36,1.12-0.67,1.73-0.92c0.6-0.25,1.23-0.44,1.87-0.57
	c1.29-0.26,2.62-0.26,3.91,0c0.63,0.13,1.26,0.32,1.87,0.57c0.6,0.25,1.18,0.56,1.72,0.92c0.55,0.36,1.06,0.78,1.52,1.24
	s0.88,0.97,1.25,1.52c0.36,0.54,0.67,1.12,0.92,1.73c0.25,0.6,0.44,1.23,0.57,1.87s0.19,1.3,0.19,1.95s-0.06,1.31-0.19,1.95
	s-0.32,1.27-0.57,1.87c-0.25,0.61-0.56,1.19-0.92,1.73c-0.37,0.55-0.79,1.06-1.25,1.52s-0.97,0.88-1.52,1.24
	c-0.54,0.36-1.12,0.67-1.72,0.92c-0.61,0.25-1.24,0.45-1.87,0.57C137.908,57.15,137.249,57.22,136.598,57.22z"/>
<path d="M63.928,57.22c-0.65,0-1.3-0.07-1.95-0.2c-0.64-0.12-1.27-0.32-1.87-0.57s-1.18-0.55-1.73-0.92
	c-0.54-0.36-1.06-0.78-1.52-1.24c-1.86-1.86-2.93-4.44-2.93-7.07c0-0.65,0.07-1.31,0.2-1.95s0.32-1.27,0.57-1.87
	c0.25-0.61,0.56-1.19,0.92-1.73c0.36-0.55,0.78-1.06,1.24-1.52s0.98-0.88,1.52-1.24c0.55-0.36,1.13-0.67,1.73-0.92
	s1.23-0.45,1.87-0.57c3.25-0.66,6.7,0.41,9.03,2.73c0.46,0.46,0.87,0.97,1.24,1.52c0.36,0.54,0.67,1.12,0.92,1.73
	c0.25,0.6,0.44,1.23,0.57,1.87s0.19,1.3,0.19,1.95c0,2.63-1.06,5.21-2.92,7.07c-0.47,0.46-0.98,0.88-1.52,1.24
	c-0.55,0.37-1.13,0.67-1.73,0.92s-1.23,0.45-1.87,0.57C65.239,57.15,64.589,57.22,63.928,57.22z"/>
<circle style="fill:#FFDE85;" cx="230.589" cy="191.41" r="25.413"/>
<path d="M230.585,226.827c-19.527,0-35.413-15.886-35.413-35.414c0-19.527,15.886-35.413,35.413-35.413
	c19.528,0,35.414,15.886,35.414,35.413S250.113,226.827,230.585,226.827z M230.585,176c-8.499,0-15.413,6.914-15.413,15.413
	s6.914,15.414,15.413,15.414s15.414-6.915,15.414-15.414S239.084,176,230.585,176z"/>
<polygon style="fill:#E3E3E3;" points="311.995,209.076 275.513,257.72 348.477,257.72 "/>
<polygon style="fill:#5E6E82;" points="275.513,257.72 219.715,332.117 404.274,332.117 348.477,257.72 "/>
<polygon style="fill:#0088BB;" points="219.715,332.117 241.285,303.357 186.923,240.407 107.723,332.117 "/>
<path d="M53.814,342.114L53.814,342.114c0.014,0,0,0,0.014,0l0,0h404.356c0.014,0-0.014,0,0,0l0,0c5.522,0,10-4.477,10-10V124.441
	c0-5.523-4.478-10-10-10H53.814c-5.523,0-10,4.477-10,10v207.673C43.814,337.637,48.291,342.114,53.814,342.114z M280.512,267.72
	h62.964l40.796,54.395H239.717l18.727-24.97h48.616c5.522,0,10-4.477,10-10s-4.478-10-10-10h-33.616L280.512,267.72z
	 M295.512,247.72l16.482-21.977l16.481,21.977H295.512z M214.717,322.114h-85.143l57.348-66.407l41.531,48.092L214.717,322.114z
	 M63.814,134.441h384.369v187.673h-38.911l-89.277-119.038l0,0c-1.889-2.518-4.853-4-8-4s-6.111,1.482-8,4l-63.259,84.346l0,0
	l-46.245-53.551c-1.899-2.2-4.662-3.464-7.568-3.464s-5.669,1.264-7.568,3.464l-76.205,88.243H63.814V134.441z"/>
<path d="M475.17,0H36.828C18.625,0,3.815,14.81,3.815,33.014l0,0v316.087c0,18.204,14.81,33.014,33.014,33.014h438.341
	c18.204,0,33.014-14.81,33.014-33.014V33.014l0,0C508.183,14.81,493.374,0,475.17,0z M23.815,33.014
	C23.815,25.838,29.653,20,36.828,20h438.341c7.176,0,13.014,5.838,13.014,13.014v41.428H23.815V33.014z M488.183,349.101
	c0,7.176-5.838,13.014-13.014,13.014H36.828c-7.176,0-13.014-5.838-13.014-13.014V94.442h464.369V349.101z"/>
<polygon style="fill:#0088BB;" points="81.872,404.473 14.149,453.236 81.872,502 83.469,502 83.469,404.473 "/>
<rect x="83.469" y="404.47" style="fill:#FFDD73;" width="341.46" height="97.53"/>
<path style="fill:#F27187;" d="M424.929,502h45.498c15.144,0,27.421-12.277,27.421-27.421v-42.685
	c0-15.144-12.277-27.421-27.421-27.421h-45.498V502z"/>
<path d="M152.669,481.96c-0.65,0-1.31-0.07-1.96-0.2c-0.64-0.13-1.27-0.32-1.87-0.57s-1.18-0.56-1.73-0.92
	c-0.54-0.37-1.05-0.78-1.52-1.24c-0.46-0.47-0.87-0.98-1.24-1.53c-0.36-0.54-0.67-1.12-0.92-1.72c-0.25-0.61-0.44-1.24-0.57-1.87
	c-0.13-0.65-0.19-1.31-0.19-1.96s0.06-1.31,0.19-1.95s0.32-1.27,0.57-1.87s0.56-1.19,0.92-1.73c0.37-0.54,0.78-1.06,1.24-1.52
	c0.47-0.46,0.98-0.88,1.52-1.24c0.55-0.36,1.13-0.67,1.73-0.92s1.23-0.44,1.87-0.57c1.29-0.26,2.62-0.26,3.91,0
	c0.64,0.13,1.27,0.32,1.87,0.57s1.19,0.56,1.73,0.92c0.55,0.36,1.06,0.78,1.52,1.24s0.88,0.98,1.24,1.52
	c0.36,0.54,0.67,1.13,0.92,1.73s0.44,1.23,0.57,1.87c0.13,0.64,0.2,1.3,0.2,1.95s-0.07,1.31-0.2,1.96
	c-0.13,0.63-0.32,1.26-0.57,1.87c-0.25,0.6-0.56,1.18-0.92,1.72c-0.36,0.55-0.78,1.06-1.24,1.53c-0.46,0.46-0.97,0.87-1.52,1.24
	c-0.54,0.36-1.13,0.67-1.73,0.92s-1.23,0.44-1.87,0.57C153.979,481.89,153.319,481.96,152.669,481.96z"/>
<path d="M470.427,394.473L470.427,394.473H83.469h-1.597c-2.097,0-4.142,0.659-5.843,1.885L8.306,445.121
	c-2.61,1.879-4.157,4.899-4.157,8.115s1.547,6.236,4.157,8.115l67.723,48.764c1.702,1.226,3.746,1.885,5.843,1.885h1.597h386.958
	l0,0c20.634,0,37.421-16.787,37.421-37.421v-42.685C507.848,411.26,491.061,394.473,470.427,394.473z M414.929,424.519H93.469
	v-10.046h321.46V424.519z M73.469,422.846v60.781l-42.206-30.391L73.469,422.846z M93.469,444.519h321.46v17.435h-224.11
	c-5.523,0-10,4.477-10,10s4.477,10,10,10h224.11V492H93.469V444.519z M487.848,474.579c0,9.606-7.815,17.421-17.421,17.421h-35.498
	v-77.527h35.498c9.605,0,17.421,7.815,17.421,17.421L487.848,474.579L487.848,474.579z"/>
<g>
</g>
<g>
</g>
<g>
</g>
<g>
</g>
<g>
</g>
<g>
</g>
<g>
</g>
<g>
</g>
<g>
</g>
<g>
</g>
<g>
</g>
<g>
</g>
<g>
</g>
<g>
</g>
<g>
</g>
</svg>
